<svg height="446pt" viewBox="0 -4 446.37994 446" width="446pt" xmlns="http://www.w3.org/2000/svg"><path d="m313 277.394531c6.714844 5.890625 11.160156 13.941407 12.570312 22.761719l9.46875-4.988281 57.019532-30.761719 6.851562-3.699219c14.632813-7.902343 32.894532-2.910156 41.46875 11.339844l-134.398437 92.28125c-18.117188 8.96875-38.636719 11.867187-58.53125 8.269531l-77.6875-14.3125c-7.148438-1.789062-14.710938-.785156-21.140625 2.8125l-42.070313 26.597656-29.390625-96.417968.238282-.070313c9.070312-1.679687 17.503906-5.808593 24.390624-11.941406l12.871094-11.460937c25.753906-19.371094 60.167969-22.726563 89.179688-8.699219l5.332031 2.570312c8.335937 4.039063 17.484375 6.132813 26.75 6.128907h51.6875c9.351563-.019532 18.386719 3.394531 25.390625 9.589843zm0 0" fill="#e48e66"/><path d="m392.019531 264.328125.039063.078125-57.019532 30.761719-9.46875 4.988281c-1.410156-8.820312-5.855468-16.871094-12.570312-22.761719l36.660156-19.75 9.320313-5.019531c11.53125-5.847656 26.648437.472656 33.039062 11.703125zm0 0" fill="#cc7350"/><path d="m165.410156 194.527344c-37.101562-37.109375-42.828125-95.253906-13.671875-138.886719 29.152344-43.628906 85.066407-60.585937 133.546875-40.503906 48.480469 20.082031 76.019532 71.613281 65.785156 123.078125-10.238281 51.464844-55.40625 88.53125-107.878906 88.53125-29.183594.039062-57.175781-11.558594-77.78125-32.21875zm156.351563-77.78125c0-43.394532-35.179688-78.570313-78.570313-78.570313-43.394531 0-78.570312 35.175781-78.570312 78.570313 0 43.394531 35.175781 78.570312 78.570312 78.570312 43.390625-.003906 78.566406-35.179687 78.570313-78.570312zm0 0" fill="#f8ec7d"/><path d="m349.210938 256.804688.449218.839843-36.660156 19.75c-7.003906-6.195312-16.039062-9.609375-25.390625-9.589843h-11.460937l30.480468-16.570313c13.816406-8.007813 31.289063-5.71875 42.582032 5.570313zm0 0" fill="#e48e66"/><path d="m233.039062 80.765625h-13.417968v72.53125h29.007812c10.015625 0 18.136719-8.121094 18.136719-18.136719s-8.121094-18.132812-18.136719-18.132812c10.015625 0 18.132813-8.117188 18.132813-18.132813 0-10.011719-8.117188-18.128906-18.132813-18.128906zm10.152344-42.589844c43.390625 0 78.570313 35.175781 78.570313 78.570313 0 43.394531-35.179688 78.570312-78.570313 78.570312-43.394531 0-78.570312-35.175781-78.570312-78.570312 0-43.390625 35.175781-78.566406 78.570312-78.570313zm0 0" fill="#e48e66"/><path d="m248.628906 80.765625c10.015625 0 18.132813 8.117187 18.132813 18.128906 0 10.015625-8.117188 18.132813-18.132813 18.132813h-29.007812v-36.261719zm0 0" fill="#f8ec7d"/><path d="m248.628906 117.027344c10.015625 0 18.136719 8.117187 18.136719 18.132812s-8.121094 18.136719-18.136719 18.136719h-29.007812v-36.269531zm0 0" fill="#f8ec7d"/><path d="m106.550781 387.695312 13.558594 44.472657h-93.371094l-20.738281-170.132813h62.238281l8.921875 29.242188zm-25.570312 14.699219c-.003907-6.871093-5.574219-12.4375-12.445313-12.4375-6.875 0-12.445312 5.570313-12.445312 12.441407 0 6.875 5.570312 12.445312 12.441406 12.449218 6.875 0 12.449219-5.574218 12.449219-12.453125zm0 0" fill="#6fe3ff"/><path d="m68.53125 389.945312c6.875-.003906 12.457031 5.566407 12.457031 12.445313.003907 6.875-5.566406 12.453125-12.445312 12.457031-6.875 0-12.453125-5.574218-12.453125-12.453125 0-6.871093 5.570312-12.441406 12.441406-12.449219zm0 0" fill="#e48e66"/><g fill="#63316d"><path d="m20.785156 432.890625c.367188 3.011719 2.921875 5.277344 5.953125 5.277344h93.371094c1.902344 0 3.691406-.902344 4.824219-2.429688 1.128906-1.53125 1.46875-3.503906.914062-5.320312l-12.222656-40.09375 38.058594-24.066407c5.066406-2.800781 11.003906-3.570312 16.617187-2.15625.125.03125.246094.058594.371094.082032l77.710937 14.3125c21.160157 3.785156 42.976563.699218 62.261719-8.796875.253907-.128907.496094-.273438.730469-.433594l134.402344-92.28125c2.613281-1.792969 3.378906-5.316406 1.746094-8.035156-10.210938-17.019531-32.011719-22.980469-49.464844-13.527344l-2.144532 1.15625c-9.332031-11.199219-25.398437-15.519531-37.648437-9.308594-.042969.023438-.085937.042969-.128906.070313l-5.277344 2.839844c-13.28125-11.167969-32.125-12.839844-47.164063-4.183594l-29.070312 15.800781h-38.699219c-8.363281-.007813-16.613281-1.902344-24.144531-5.535156l-5.324219-2.566407c-31.019531-15.089843-67.882812-11.496093-95.402343 9.304688-.128907.101562-.257813.203125-.382813.316406l-12.867187 11.457032c-4.789063 4.253906-10.441407 7.425781-16.570313 9.292968l-7.253906-23.792968c-.769531-2.523438-3.097657-4.246094-5.738281-4.246094h-62.242188c-1.71875 0-3.351562.734375-4.492188 2.019531-1.136718 1.289063-1.671874 3-1.4648432 4.707031zm340.96875-174.945313c6.902344-3.457031 15.570313-.695312 21.203125 4.550782l-50.714843 27.359375-2.777344 1.464843c-1.589844-4.445312-3.875-8.605468-6.769532-12.332031zm-52.257812-1.4375c.046875-.027343.101562-.050781.144531-.082031 9.121094-5.273437 20.375-5.238281 29.460937.09375l-25.460937 13.714844c-4.792969-3.472656-10.234375-5.949219-16-7.28125zm-203.714844 27.238282 12.679688-11.289063c23.917968-17.964843 55.875-21.035156 82.773437-7.945312l5.320313 2.566406c9.160156 4.417969 19.195312 6.71875 29.367187 6.730469h51.6875c15.480469.011718 28.800781 10.949218 31.828125 26.132812l-37.214844-1.683594c-13.628906-.613281-27.289062.019532-40.800781 1.890626-2.144531.269531-3.976563 1.671874-4.796875 3.667968-.824219 2-.507812 4.285156.824219 5.984375 1.335937 1.703125 3.480469 2.554688 5.617187 2.234375 12.789063-1.769531 25.714844-2.367187 38.613282-1.789062l44.101562 2c.089844 0 .183594.003906.273438.003906 3.3125 0 6-2.6875 6-6 0-.898438-.035157-1.789062-.089844-2.675781l5.925781-3.121094 63.871094-34.460937c9.925781-5.378907 22.222656-3.46875 30.050781 4.664062l-128.871094 88.476562c-16.875 8.214844-35.921875 10.863282-54.398437 7.5625l-77.515625-14.277343c-8.574219-2.113281-17.632813-.882813-25.335938 3.4375-.09375.054687-.1875.109375-.28125.167969l-35.417968 22.394531-25.257813-82.851563c7.785156-2.378906 14.964844-6.410156 21.046875-11.820312zm-41.984375-15.710938 37.015625 121.410156 11.199219 36.722657h-79.957031l-19.277344-158.132813zm0 0"/><path d="m68.53125 420.847656c10.191406.003906 18.457031-8.253906 18.457031-18.445312.003907-10.191406-8.253906-18.453125-18.445312-18.457032-10.191407 0-18.453125 8.261719-18.453125 18.449219.011718 10.183594 8.257812 18.433594 18.441406 18.453125zm0-24.902344c3.5625-.003906 6.457031 2.878907 6.457031 6.445313.003907 3.5625-2.882812 6.453125-6.445312 6.457031-3.5625 0-6.453125-2.886718-6.453125-6.453125.003906-3.554687 2.882812-6.4375 6.441406-6.449219zm0 0"/><path d="m243.191406 201.316406c46.707032 0 84.570313-37.863281 84.570313-84.570312 0-46.707032-37.863281-84.570313-84.570313-84.570313-46.707031 0-84.570312 37.863281-84.570312 84.570313.050781 46.683594 37.882812 84.515625 84.570312 84.570312zm0-157.140625c40.078125 0 72.570313 32.492188 72.570313 72.570313s-32.492188 72.570312-72.570313 72.570312c-40.082031 0-72.570312-32.492187-72.570312-72.570312.042968-40.058594 32.507812-72.523438 72.570312-72.570313zm0 0"/><path d="m161.167969 198.769531c29.230469 29.65625 72.117187 41.367188 112.367187 30.6875 40.25-10.679687 71.683594-42.117187 82.367188-82.363281 10.679687-40.25-1.03125-83.136719-30.6875-112.371094-29.238282-29.632812-72.113282-41.332031-112.351563-30.648437-40.234375 10.683593-71.660156 42.109375-82.34375 82.34375-10.683593 40.238281 1.011719 83.113281 30.648438 112.351562zm-16.546875-88.023437h-5.253906c1.28125-23.417969 10.511718-45.703125 26.167968-63.167969l3.710938 3.710937c2.34375 2.34375 6.144531 2.34375 8.488281 0 2.339844-2.34375 2.339844-6.144531-.003906-8.484374l-3.710938-3.714844c17.464844-15.65625 39.75-24.886719 63.171875-26.167969v5.253906c0 3.3125 2.683594 6 6 6 3.3125 0 6-2.6875 6-6v-5.253906c23.417969 1.28125 45.703125 10.511719 63.167969 26.167969l-3.710937 3.714844c-2.34375 2.339843-2.34375 6.140624 0 8.484374s6.140624 2.34375 8.484374 0l3.714844-3.710937c15.652344 17.464844 24.882813 39.75 26.167969 63.167969h-5.253906c-3.316407 0-6 2.6875-6 6s2.683593 6 6 6h5.253906c-1.285156 23.421875-10.515625 45.703125-26.167969 63.171875l-3.714844-3.714844c-2.347656-2.308594-6.121093-2.292969-8.449218.035156-2.332032 2.332031-2.347656 6.101563-.035156 8.449219l3.710937 3.714844c-17.464844 15.65625-39.75 24.886718-63.167969 26.167968v-5.253906c0-3.3125-2.6875-6-6-6-3.316406 0-6 2.6875-6 6v5.253906c-23.421875-1.28125-45.707031-10.511718-63.171875-26.167968l3.710938-3.714844c2.3125-2.347656 2.296875-6.117188-.03125-8.449219-2.332031-2.328125-6.105469-2.34375-8.453125-.035156l-3.710938 3.714844c-15.65625-17.46875-24.886718-39.75-26.167968-63.171875h5.253906c3.3125 0 6-2.6875 6-6s-2.6875-6-6-6zm0 0"/><path d="m219.621094 159.296875h7.417968v5.960937c0 3.3125 2.6875 6 6 6 3.316407 0 6-2.6875 6-6v-5.960937h5.160157v5.960937c0 3.3125 2.6875 6 6 6 3.316406 0 6-2.6875 6-6v-7.175781c8.21875-2.710937 14.355469-9.621093 16.078125-18.105469 1.722656-8.480468-1.230469-17.238281-7.742188-22.941406.394532-.347656.78125-.699218 1.15625-1.074218 5.921875-5.921876 8.351563-14.488282 6.414063-22.636719-1.933594-8.148438-7.953125-14.707031-15.90625-17.335938v-7.753906c0-3.3125-2.683594-6-6-6-3.3125 0-6 2.6875-6 6v6.53125h-5.160157v-6.53125c0-3.3125-2.683593-6-6-6-3.3125 0-6 2.6875-6 6v6.53125h-7.417968c-3.316406 0-6 2.6875-6 6v72.53125c0 3.3125 2.683594 6 6 6zm41.140625-24.140625c.003906 6.703125-5.429688 12.140625-12.132813 12.140625h-23.007812v-24.269531h23.007812c6.695313.007812 12.125 5.433594 12.132813 12.128906zm-12.132813-48.390625c6.699219 0 12.132813 5.429687 12.132813 12.128906s-5.433594 12.132813-12.132813 12.132813h-23.007812v-24.261719zm0 0"/></g></svg>